<svg xmlns="http://www.w3.org/2000/svg" viewBox="0 0 94 122">
  <g id="container">
    <path fill="#fff" d="M8.1 89.9L47.6 110l38-20.1V11.3H8.1z"/>
    <path fill="#f2f3f2" d="M86.4 11.6L7.3 91.3l41 20.3 38.1-19.5z"/>
    <path d="M5.5 37.5v54.1l1.4.7 39.5 20.1 1.2.6 1.2-.6 38.1-20.1 1.4-.7V8.7H5.5v28.8zm2.6 52.6V11.3h77.6v78.8l-38.1 20.1L8.1 90.1z" fill="#dcdedc"/>
    <path id="logo" d="M46.9 12.6c.4 0 .8 0 1.2.1L46.9 15c-1.8-.1-3.4 1.3-3.5 3.1-.1 1.8 1.3 3.4 3.1 3.5h.4c.8 0 1.6-.3 2.2-.8l1.3 2.2c-1 .7-2.2 1.1-3.5 1.1-3.2.1-5.9-2.3-6-5.5-.1-3.2 2.3-5.9 5.5-6h.5zm4.1 4.9l1.5 2.5-1.5 2.4-1.4-2.4h-2.9l1.5-2.5H51zm-2.4-.9c0-.4.1-.8.3-1.1.2-.3.6-.6.9-.8l.2-.1c.4-.2.5-.3.5-.5s-.3-.4-.5-.4c-.4 0-.7.2-.9.6l-.5-.5c.1-.2.3-.4.5-.6.3-.2.6-.2.9-.2.3 0 .7.1.9.3.2.2.4.5.4.8 0 .5-.3.9-.9 1.1l-.3.2c-.3.2-.5.3-.6.6h1.8v.7l-2.7-.1zm-1.7 12.5l9.5-5.4v-15H37.3v14.9l9.6 5.5z" fill="#ff492c"/>
    <path id="banner" d="M90.2 64.5H3.6l-3.2 7 3.2 7h86.6l3.1-7z" fill="#23cca2"/>
  <path fill="#252530" transform="translate(12.20, 60)" d="M5.24-4.01Q5.17-3.98 5.24-3.95L5.24-3.95Q6.28-3.41 6.28-2.16L6.28-2.16Q6.28-1.09 5.55-0.54Q4.83 0 3.65 0L3.65 0L0.80 0Q0.75 0 0.71-0.04Q0.67-0.08 0.67-0.13L0.67-0.13L0.67-7.57Q0.67-7.62 0.71-7.66Q0.75-7.70 0.80-7.70L0.80-7.70L3.56-7.70Q6.17-7.70 6.17-5.59L6.17-5.59Q6.17-4.49 5.24-4.01L5.24-4.01ZM2.28-6.37Q2.22-6.37 2.22-6.31L2.22-6.31L2.22-4.60Q2.22-4.54 2.28-4.54L2.28-4.54L3.56-4.54Q4.08-4.54 4.37-4.79Q4.65-5.03 4.65-5.44L4.65-5.44Q4.65-5.87 4.37-6.12Q4.08-6.37 3.56-6.37L3.56-6.37L2.28-6.37ZM3.65-1.34Q4.16-1.34 4.44-1.60Q4.73-1.86 4.73-2.31L4.73-2.31Q4.73-2.76 4.44-3.02Q4.16-3.28 3.64-3.28L3.64-3.28L2.28-3.28Q2.22-3.28 2.22-3.22L2.22-3.22L2.22-1.40Q2.22-1.34 2.28-1.34L2.28-1.34L3.65-1.34ZM10.63-5.52Q10.63-5.58 10.66-5.62Q10.70-5.65 10.76-5.65L10.76-5.65L12.04-5.65Q12.10-5.65 12.14-5.62Q12.18-5.58 12.18-5.52L12.18-5.52L12.18-0.13Q12.18-0.08 12.14-0.04Q12.10 0 12.04 0L12.04 0L10.76 0Q10.70 0 10.66-0.04Q10.63-0.08 10.63-0.13L10.63-0.13L10.63-0.51Q10.63-0.54 10.60-0.54Q10.58-0.55 10.56-0.52L10.56-0.52Q10.12 0.08 9.20 0.08L9.20 0.08Q8.36 0.08 7.82-0.43Q7.28-0.93 7.28-1.85L7.28-1.85L7.28-5.52Q7.28-5.58 7.32-5.62Q7.36-5.65 7.41-5.65L7.41-5.65L8.69-5.65Q8.74-5.65 8.78-5.62Q8.82-5.58 8.82-5.52L8.82-5.52L8.82-2.23Q8.82-1.79 9.06-1.52Q9.29-1.24 9.71-1.24L9.71-1.24Q10.09-1.24 10.33-1.47Q10.57-1.69 10.63-2.06L10.63-2.06L10.63-5.52ZM15.58 0.08Q14.84 0.08 14.29-0.13Q13.74-0.34 13.44-0.71Q13.13-1.09 13.13-1.56L13.13-1.56L13.13-1.67Q13.13-1.73 13.17-1.77Q13.21-1.80 13.27-1.80L13.27-1.80L14.49-1.80Q14.54-1.80 14.58-1.77Q14.62-1.73 14.62-1.67L14.62-1.67L14.62-1.66Q14.62-1.42 14.89-1.25Q15.16-1.08 15.56-1.08L15.56-1.08Q15.94-1.08 16.17-1.23Q16.40-1.38 16.40-1.59L16.40-1.59Q16.40-1.79 16.20-1.89Q16.00-1.99 15.55-2.10L15.55-2.10Q15.04-2.23 14.74-2.35L14.74-2.35Q14.04-2.60 13.62-2.95Q13.20-3.30 13.20-3.96L13.20-3.96Q13.20-4.77 13.83-5.25Q14.46-5.73 15.51-5.73L15.51-5.73Q16.21-5.73 16.74-5.51Q17.27-5.28 17.56-4.87Q17.85-4.47 17.85-3.95L17.85-3.95Q17.85-3.89 17.81-3.86Q17.78-3.82 17.72-3.82L17.72-3.82L16.54-3.82Q16.49-3.82 16.45-3.86Q16.41-3.89 16.41-3.95L16.41-3.95Q16.41-4.19 16.16-4.36Q15.92-4.52 15.51-4.52L15.51-4.52Q15.15-4.52 14.92-4.39Q14.68-4.26 14.68-4.03L14.68-4.03Q14.68-3.81 14.91-3.70Q15.14-3.59 15.66-3.46L15.66-3.46Q15.78-3.43 15.94-3.39Q16.09-3.35 16.27-3.30L16.27-3.30Q17.05-3.07 17.50-2.71Q17.95-2.34 17.95-1.65L17.95-1.65Q17.95-0.84 17.31-0.38Q16.66 0.08 15.58 0.08L15.58 0.08ZM19.68-6.29Q19.30-6.29 19.06-6.54Q18.81-6.79 18.81-7.16L18.81-7.16Q18.81-7.55 19.05-7.79Q19.29-8.03 19.68-8.03L19.68-8.03Q20.06-8.03 20.31-7.79Q20.55-7.55 20.55-7.16L20.55-7.16Q20.55-6.79 20.30-6.54Q20.05-6.29 19.68-6.29L19.68-6.29ZM19.02 0Q18.96 0 18.93-0.04Q18.89-0.08 18.89-0.13L18.89-0.13L18.89-5.53Q18.89-5.59 18.93-5.63Q18.96-5.67 19.02-5.67L19.02-5.67L20.31-5.67Q20.36-5.67 20.40-5.63Q20.44-5.59 20.44-5.53L20.44-5.53L20.44-0.13Q20.44-0.08 20.40-0.04Q20.36 0 20.31 0L20.31 0L19.02 0ZM24.60-5.74Q25.48-5.74 26.01-5.20Q26.55-4.66 26.55-3.74L26.55-3.74L26.55-0.13Q26.55-0.08 26.52-0.04Q26.48 0 26.42 0L26.42 0L25.13 0Q25.08 0 25.04-0.04Q25.00-0.08 25.00-0.13L25.00-0.13L25.00-3.42Q25.00-3.86 24.76-4.14Q24.51-4.41 24.10-4.41L24.10-4.41Q23.69-4.41 23.45-4.14Q23.20-3.86 23.20-3.42L23.20-3.42L23.20-0.13Q23.20-0.08 23.16-0.04Q23.12 0 23.07 0L23.07 0L21.78 0Q21.72 0 21.69-0.04Q21.65-0.08 21.65-0.13L21.65-0.13L21.65-5.52Q21.65-5.58 21.69-5.62Q21.72-5.65 21.78-5.65L21.78-5.65L23.07-5.65Q23.12-5.65 23.16-5.62Q23.20-5.58 23.20-5.52L23.20-5.52L23.20-5.14Q23.20-5.10 23.22-5.09Q23.24-5.08 23.25-5.10L23.25-5.10Q23.70-5.74 24.60-5.74L24.60-5.74ZM32.64-3.41Q32.70-2.99 32.68-2.47L32.68-2.47Q32.67-2.34 32.54-2.34L32.54-2.34L29.14-2.34Q29.07-2.34 29.09-2.29L29.09-2.29Q29.13-2.07 29.22-1.85L29.22-1.85Q29.50-1.23 30.38-1.23L30.38-1.23Q31.09-1.24 31.49-1.80L31.49-1.80Q31.54-1.87 31.59-1.87L31.59-1.87Q31.62-1.87 31.67-1.83L31.67-1.83L32.46-1.04Q32.52-0.99 32.52-0.95L32.52-0.95Q32.52-0.92 32.47-0.86L32.47-0.86Q32.11-0.41 31.54-0.16Q30.96 0.09 30.28 0.09L30.28 0.09Q29.34 0.09 28.68-0.34Q28.03-0.77 27.74-1.54L27.74-1.54Q27.51-2.09 27.51-2.98L27.51-2.98Q27.51-3.59 27.68-4.05L27.68-4.05Q27.93-4.83 28.56-5.29Q29.19-5.75 30.06-5.75L30.06-5.75Q31.16-5.75 31.83-5.11Q32.49-4.48 32.64-3.41L32.64-3.41ZM30.07-4.41Q29.38-4.41 29.16-3.76L29.16-3.76Q29.12-3.62 29.08-3.41L29.08-3.41Q29.08-3.35 29.14-3.35L29.14-3.35L31.04-3.35Q31.11-3.35 31.09-3.41L31.09-3.41Q31.03-3.73 31.03-3.72L31.03-3.72Q30.93-4.05 30.68-4.23Q30.44-4.41 30.07-4.41L30.07-4.41ZM35.82 0.08Q35.08 0.08 34.53-0.13Q33.98-0.34 33.68-0.71Q33.37-1.09 33.37-1.56L33.37-1.56L33.37-1.67Q33.37-1.73 33.41-1.77Q33.45-1.80 33.51-1.80L33.51-1.80L34.73-1.80Q34.78-1.80 34.82-1.77Q34.86-1.73 34.86-1.67L34.86-1.67L34.86-1.66Q34.86-1.42 35.13-1.25Q35.40-1.08 35.80-1.08L35.80-1.08Q36.18-1.08 36.41-1.23Q36.64-1.38 36.64-1.59L36.64-1.59Q36.64-1.79 36.44-1.89Q36.24-1.99 35.79-2.10L35.79-2.10Q35.28-2.23 34.98-2.35L34.98-2.35Q34.28-2.60 33.86-2.95Q33.44-3.30 33.44-3.96L33.44-3.96Q33.44-4.77 34.07-5.25Q34.70-5.73 35.75-5.73L35.75-5.73Q36.45-5.73 36.98-5.51Q37.51-5.28 37.80-4.87Q38.09-4.47 38.09-3.95L38.09-3.95Q38.09-3.89 38.05-3.86Q38.02-3.82 37.96-3.82L37.96-3.82L36.78-3.82Q36.73-3.82 36.69-3.86Q36.65-3.89 36.65-3.95L36.65-3.95Q36.65-4.19 36.40-4.36Q36.16-4.52 35.75-4.52L35.75-4.52Q35.39-4.52 35.16-4.39Q34.92-4.26 34.92-4.03L34.92-4.03Q34.92-3.81 35.15-3.70Q35.38-3.59 35.90-3.46L35.90-3.46Q36.02-3.43 36.18-3.39Q36.33-3.35 36.51-3.30L36.51-3.30Q37.29-3.07 37.74-2.71Q38.19-2.34 38.19-1.65L38.19-1.65Q38.19-0.84 37.55-0.38Q36.90 0.08 35.82 0.08L35.82 0.08ZM41.26 0.08Q40.52 0.08 39.97-0.13Q39.42-0.34 39.12-0.71Q38.82-1.09 38.82-1.56L38.82-1.56L38.82-1.67Q38.82-1.73 38.86-1.77Q38.90-1.80 38.95-1.80L38.95-1.80L40.17-1.80Q40.23-1.80 40.27-1.77Q40.30-1.73 40.30-1.67L40.30-1.67L40.30-1.66Q40.30-1.42 40.57-1.25Q40.84-1.08 41.25-1.08L41.25-1.08Q41.62-1.08 41.85-1.23Q42.09-1.38 42.09-1.59L42.09-1.59Q42.09-1.79 41.89-1.89Q41.69-1.99 41.24-2.10L41.24-2.10Q40.72-2.23 40.42-2.35L40.42-2.35Q39.72-2.60 39.30-2.95Q38.88-3.30 38.88-3.96L38.88-3.96Q38.88-4.77 39.52-5.25Q40.15-5.73 41.20-5.73L41.20-5.73Q41.90-5.73 42.43-5.51Q42.95-5.28 43.25-4.87Q43.54-4.47 43.54-3.95L43.54-3.95Q43.54-3.89 43.50-3.86Q43.46-3.82 43.41-3.82L43.41-3.82L42.23-3.82Q42.17-3.82 42.14-3.86Q42.10-3.89 42.10-3.95L42.10-3.95Q42.10-4.19 41.85-4.36Q41.60-4.52 41.20-4.52L41.20-4.52Q40.83-4.52 40.60-4.39Q40.37-4.26 40.37-4.03L40.37-4.03Q40.37-3.81 40.60-3.70Q40.82-3.59 41.35-3.46L41.35-3.46Q41.47-3.43 41.62-3.39Q41.78-3.35 41.95-3.30L41.95-3.30Q42.73-3.07 43.19-2.71Q43.64-2.34 43.64-1.65L43.64-1.65Q43.64-0.84 42.99-0.38Q42.35 0.08 41.26 0.08L41.26 0.08ZM48.53 0Q48.41 0 48.38-0.11L48.38-0.11L46.43-7.56L46.42-7.60Q46.42-7.70 46.54-7.70L46.54-7.70L47.91-7.70Q48.02-7.70 48.05-7.59L48.05-7.59L49.09-3.11Q49.10-3.07 49.13-3.07Q49.15-3.07 49.16-3.11L49.16-3.11L50.17-7.58Q50.20-7.70 50.31-7.70L50.31-7.70L51.64-7.70Q51.77-7.70 51.80-7.59L51.80-7.59L52.90-3.11Q52.91-3.08 52.93-3.07Q52.95-3.07 52.96-3.11L52.96-3.11L53.98-7.58Q54.01-7.70 54.12-7.70L54.12-7.70L55.42-7.70Q55.57-7.70 55.54-7.56L55.54-7.56L53.73-0.11Q53.70 0 53.58 0L53.58 0L52.27 0Q52.16 0 52.13-0.11L52.13-0.11L51.01-4.87Q51.00-4.92 50.97-4.92Q50.95-4.92 50.94-4.87L50.94-4.87L49.90-0.12Q49.87 0 49.75 0L49.75 0L48.53 0ZM57.21-6.29Q56.84-6.29 56.59-6.54Q56.34-6.79 56.34-7.16L56.34-7.16Q56.34-7.55 56.58-7.79Q56.83-8.03 57.21-8.03L57.21-8.03Q57.60-8.03 57.84-7.79Q58.08-7.55 58.08-7.16L58.08-7.16Q58.08-6.79 57.83-6.54Q57.58-6.29 57.21-6.29L57.21-6.29ZM56.55 0Q56.50 0 56.46-0.04Q56.42-0.08 56.42-0.13L56.42-0.13L56.42-5.53Q56.42-5.59 56.46-5.63Q56.50-5.67 56.55-5.67L56.55-5.67L57.84-5.67Q57.89-5.67 57.93-5.63Q57.97-5.59 57.97-5.53L57.97-5.53L57.97-0.13Q57.97-0.08 57.93-0.04Q57.89 0 57.84 0L57.84 0L56.55 0ZM62.42-4.54Q62.42-4.49 62.39-4.45Q62.35-4.41 62.29-4.41L62.29-4.41L61.24-4.41Q61.18-4.41 61.18-4.36L61.18-4.36L61.18-2.02Q61.18-1.66 61.33-1.48Q61.48-1.31 61.81-1.31L61.81-1.31L62.17-1.31Q62.23-1.31 62.27-1.27Q62.30-1.23 62.30-1.18L62.30-1.18L62.30-0.13Q62.30-0.01 62.17 0.01L62.17 0.01Q61.71 0.03 61.51 0.03L61.51 0.03Q60.60 0.03 60.15-0.27Q59.70-0.57 59.69-1.41L59.69-1.41L59.69-4.36Q59.69-4.41 59.63-4.41L59.63-4.41L59.00-4.41Q58.95-4.41 58.91-4.45Q58.87-4.49 58.87-4.54L58.87-4.54L58.87-5.52Q58.87-5.58 58.91-5.62Q58.95-5.65 59.00-5.65L59.00-5.65L59.63-5.65Q59.69-5.65 59.69-5.71L59.69-5.71L59.69-7.02Q59.69-7.07 59.72-7.11Q59.76-7.15 59.82-7.15L59.82-7.15L61.05-7.15Q61.10-7.15 61.14-7.11Q61.18-7.07 61.18-7.02L61.18-7.02L61.18-5.71Q61.18-5.65 61.24-5.65L61.24-5.65L62.29-5.65Q62.35-5.65 62.39-5.62Q62.42-5.58 62.42-5.52L62.42-5.52L62.42-4.54ZM66.31-5.74Q67.19-5.74 67.73-5.20Q68.27-4.66 68.27-3.74L68.27-3.74L68.27-0.13Q68.27-0.08 68.23-0.04Q68.19 0 68.13 0L68.13 0L66.85 0Q66.79 0 66.75-0.04Q66.72-0.08 66.72-0.13L66.72-0.13L66.72-3.42Q66.72-3.86 66.47-4.14Q66.22-4.41 65.81-4.41L65.81-4.41Q65.41-4.41 65.16-4.14Q64.91-3.86 64.91-3.42L64.91-3.42L64.91-0.13Q64.91-0.08 64.87-0.04Q64.83 0 64.78 0L64.78 0L63.49 0Q63.44 0 63.40-0.04Q63.36-0.08 63.36-0.13L63.36-0.13L63.36-7.57Q63.36-7.62 63.40-7.66Q63.44-7.70 63.49-7.70L63.49-7.70L64.78-7.70Q64.83-7.70 64.87-7.66Q64.91-7.62 64.91-7.57L64.91-7.57L64.91-5.14Q64.91-5.10 64.93-5.09Q64.95-5.08 64.97-5.10L64.97-5.10Q65.42-5.74 66.31-5.74L66.31-5.74Z"/><path fill="#252530" transform="translate(13.97, 49)" d="M6.02-6.50Q6.02-6.45 5.98-6.41Q5.94-6.37 5.88-6.37L5.88-6.37L2.28-6.37Q2.22-6.37 2.22-6.31L2.22-6.31L2.22-4.61Q2.22-4.55 2.28-4.55L2.28-4.55L4.64-4.55Q4.70-4.55 4.74-4.52Q4.77-4.48 4.77-4.42L4.77-4.42L4.77-3.35Q4.77-3.30 4.74-3.26Q4.70-3.22 4.64-3.22L4.64-3.22L2.28-3.22Q2.22-3.22 2.22-3.17L2.22-3.17L2.22-1.39Q2.22-1.33 2.28-1.33L2.28-1.33L5.88-1.33Q5.94-1.33 5.98-1.29Q6.02-1.25 6.02-1.20L6.02-1.20L6.02-0.13Q6.02-0.08 5.98-0.04Q5.94 0 5.88 0L5.88 0L0.80 0Q0.75 0 0.71-0.04Q0.67-0.08 0.67-0.13L0.67-0.13L0.67-7.57Q0.67-7.62 0.71-7.66Q0.75-7.70 0.80-7.70L0.80-7.70L5.88-7.70Q5.94-7.70 5.98-7.66Q6.02-7.62 6.02-7.57L6.02-7.57L6.02-6.50ZM9.25-5.74Q9.97-5.74 10.53-5.49Q11.09-5.25 11.40-4.82Q11.71-4.39 11.71-3.86L11.71-3.86L11.71-0.13Q11.71-0.08 11.68-0.04Q11.64 0 11.58 0L11.58 0L10.30 0Q10.24 0 10.20-0.04Q10.16-0.08 10.16-0.13L10.16-0.13L10.16-0.49Q10.16-0.53 10.14-0.54Q10.12-0.55 10.10-0.52L10.10-0.52Q9.64 0.09 8.61 0.09L8.61 0.09Q7.75 0.09 7.23-0.33Q6.70-0.75 6.70-1.56L6.70-1.56Q6.70-2.41 7.29-2.88Q7.89-3.34 8.99-3.34L8.99-3.34L10.11-3.34Q10.16-3.34 10.16-3.40L10.16-3.40L10.16-3.64Q10.16-4.00 9.94-4.21Q9.72-4.41 9.28-4.41L9.28-4.41Q8.94-4.41 8.72-4.29Q8.49-4.17 8.43-3.95L8.43-3.95Q8.39-3.83 8.28-3.84L8.28-3.84L6.95-4.01Q6.82-4.04 6.83-4.11L6.83-4.11Q6.87-4.58 7.20-4.95Q7.52-5.32 8.06-5.53Q8.59-5.74 9.25-5.74L9.25-5.74ZM9.03-1.07Q9.50-1.07 9.83-1.32Q10.16-1.57 10.16-1.97L10.16-1.97L10.16-2.36Q10.16-2.42 10.11-2.42L10.11-2.42L9.32-2.42Q8.82-2.42 8.54-2.23Q8.26-2.05 8.26-1.70L8.26-1.70Q8.26-1.41 8.47-1.24Q8.68-1.07 9.03-1.07L9.03-1.07ZM15.06 0.08Q14.32 0.08 13.77-0.13Q13.22-0.34 12.92-0.71Q12.62-1.09 12.62-1.56L12.62-1.56L12.62-1.67Q12.62-1.73 12.66-1.77Q12.69-1.80 12.75-1.80L12.75-1.80L13.97-1.80Q14.02-1.80 14.06-1.77Q14.10-1.73 14.10-1.67L14.10-1.67L14.10-1.66Q14.10-1.42 14.37-1.25Q14.64-1.08 15.05-1.08L15.05-1.08Q15.42-1.08 15.65-1.23Q15.88-1.38 15.88-1.59L15.88-1.59Q15.88-1.79 15.69-1.89Q15.49-1.99 15.04-2.10L15.04-2.10Q14.52-2.23 14.22-2.35L14.22-2.35Q13.52-2.60 13.10-2.95Q12.68-3.30 12.68-3.96L12.68-3.96Q12.68-4.77 13.32-5.25Q13.95-5.73 14.99-5.73L14.99-5.73Q15.70-5.73 16.22-5.51Q16.75-5.28 17.04-4.87Q17.34-4.47 17.34-3.95L17.34-3.95Q17.34-3.89 17.30-3.86Q17.26-3.82 17.20-3.82L17.20-3.82L16.03-3.82Q15.97-3.82 15.93-3.86Q15.89-3.89 15.89-3.95L15.89-3.95Q15.89-4.19 15.65-4.36Q15.40-4.52 14.99-4.52L14.99-4.52Q14.63-4.52 14.40-4.39Q14.17-4.26 14.17-4.03L14.17-4.03Q14.17-3.81 14.39-3.70Q14.62-3.59 15.15-3.46L15.15-3.46Q15.27-3.43 15.42-3.39Q15.58-3.35 15.75-3.30L15.75-3.30Q16.53-3.07 16.98-2.71Q17.43-2.34 17.43-1.65L17.43-1.65Q17.43-0.84 16.79-0.38Q16.15 0.08 15.06 0.08L15.06 0.08ZM19.16-6.29Q18.79-6.29 18.54-6.54Q18.29-6.79 18.29-7.16L18.29-7.16Q18.29-7.55 18.53-7.79Q18.78-8.03 19.16-8.03L19.16-8.03Q19.55-8.03 19.79-7.79Q20.03-7.55 20.03-7.16L20.03-7.16Q20.03-6.79 19.78-6.54Q19.54-6.29 19.16-6.29L19.16-6.29ZM18.50 0Q18.45 0 18.41-0.04Q18.37-0.08 18.37-0.13L18.37-0.13L18.37-5.53Q18.37-5.59 18.41-5.63Q18.45-5.67 18.50-5.67L18.50-5.67L19.79-5.67Q19.84-5.67 19.88-5.63Q19.92-5.59 19.92-5.53L19.92-5.53L19.92-0.13Q19.92-0.08 19.88-0.04Q19.84 0 19.79 0L19.79 0L18.50 0ZM26.14-3.41Q26.20-2.99 26.18-2.47L26.18-2.47Q26.17-2.34 26.04-2.34L26.04-2.34L22.64-2.34Q22.57-2.34 22.59-2.29L22.59-2.29Q22.63-2.07 22.71-1.85L22.71-1.85Q23.00-1.23 23.88-1.23L23.88-1.23Q24.58-1.24 24.99-1.80L24.99-1.80Q25.04-1.87 25.09-1.87L25.09-1.87Q25.12-1.87 25.17-1.83L25.17-1.83L25.96-1.04Q26.01-0.99 26.01-0.95L26.01-0.95Q26.01-0.92 25.97-0.86L25.97-0.86Q25.61-0.41 25.04-0.16Q24.46 0.09 23.78 0.09L23.78 0.09Q22.84 0.09 22.18-0.34Q21.53-0.77 21.24-1.54L21.24-1.54Q21.01-2.09 21.01-2.98L21.01-2.98Q21.01-3.59 21.17-4.05L21.17-4.05Q21.43-4.83 22.06-5.29Q22.69-5.75 23.56-5.75L23.56-5.75Q24.66-5.75 25.33-5.11Q25.99-4.48 26.14-3.41L26.14-3.41ZM23.57-4.41Q22.88-4.41 22.66-3.76L22.66-3.76Q22.62-3.62 22.58-3.41L22.58-3.41Q22.58-3.35 22.64-3.35L22.64-3.35L24.54-3.35Q24.61-3.35 24.58-3.41L24.58-3.41Q24.53-3.73 24.53-3.72L24.53-3.72Q24.43-4.05 24.18-4.23Q23.94-4.41 23.57-4.41L23.57-4.41ZM29.31 0.08Q28.58 0.08 28.03-0.13Q27.48-0.34 27.18-0.71Q26.87-1.09 26.87-1.56L26.87-1.56L26.87-1.67Q26.87-1.73 26.91-1.77Q26.95-1.80 27.00-1.80L27.00-1.80L28.23-1.80Q28.28-1.80 28.32-1.77Q28.36-1.73 28.36-1.67L28.36-1.67L28.36-1.66Q28.36-1.42 28.63-1.25Q28.90-1.08 29.30-1.08L29.30-1.08Q29.68-1.08 29.91-1.23Q30.14-1.38 30.14-1.59L30.14-1.59Q30.14-1.79 29.94-1.89Q29.74-1.99 29.29-2.10L29.29-2.10Q28.78-2.23 28.48-2.35L28.48-2.35Q27.77-2.60 27.36-2.95Q26.94-3.30 26.94-3.96L26.94-3.96Q26.94-4.77 27.57-5.25Q28.20-5.73 29.25-5.73L29.25-5.73Q29.95-5.73 30.48-5.51Q31.01-5.28 31.30-4.87Q31.59-4.47 31.59-3.95L31.59-3.95Q31.59-3.89 31.55-3.86Q31.51-3.82 31.46-3.82L31.46-3.82L30.28-3.82Q30.23-3.82 30.19-3.86Q30.15-3.89 30.15-3.95L30.15-3.95Q30.15-4.19 29.90-4.36Q29.66-4.52 29.25-4.52L29.25-4.52Q28.89-4.52 28.65-4.39Q28.42-4.26 28.42-4.03L28.42-4.03Q28.42-3.81 28.65-3.70Q28.87-3.59 29.40-3.46L29.40-3.46Q29.52-3.43 29.68-3.39Q29.83-3.35 30.01-3.30L30.01-3.30Q30.79-3.07 31.24-2.71Q31.69-2.34 31.69-1.65L31.69-1.65Q31.69-0.84 31.05-0.38Q30.40 0.08 29.31 0.08L29.31 0.08ZM35.82-4.54Q35.82-4.49 35.78-4.45Q35.74-4.41 35.68-4.41L35.68-4.41L34.63-4.41Q34.57-4.41 34.57-4.36L34.57-4.36L34.57-2.02Q34.57-1.66 34.72-1.48Q34.87-1.31 35.20-1.31L35.20-1.31L35.56-1.31Q35.62-1.31 35.66-1.27Q35.70-1.23 35.70-1.18L35.70-1.18L35.70-0.13Q35.70-0.01 35.56 0.01L35.56 0.01Q35.10 0.03 34.90 0.03L34.90 0.03Q33.99 0.03 33.54-0.27Q33.09-0.57 33.08-1.41L33.08-1.41L33.08-4.36Q33.08-4.41 33.02-4.41L33.02-4.41L32.39-4.41Q32.34-4.41 32.30-4.45Q32.26-4.49 32.26-4.54L32.26-4.54L32.26-5.52Q32.26-5.58 32.30-5.62Q32.34-5.65 32.39-5.65L32.39-5.65L33.02-5.65Q33.08-5.65 33.08-5.71L33.08-5.71L33.08-7.02Q33.08-7.07 33.12-7.11Q33.15-7.15 33.21-7.15L33.21-7.15L34.44-7.15Q34.50-7.15 34.53-7.11Q34.57-7.07 34.57-7.02L34.57-7.02L34.57-5.71Q34.57-5.65 34.63-5.65L34.63-5.65L35.68-5.65Q35.74-5.65 35.78-5.62Q35.82-5.58 35.82-5.52L35.82-5.52L35.82-4.54ZM44.36-7.70Q44.42-7.70 44.46-7.66Q44.50-7.62 44.50-7.57L44.50-7.57L44.50-6.49Q44.50-6.43 44.46-6.40Q44.42-6.36 44.36-6.36L44.36-6.36L42.39-6.36Q42.34-6.36 42.34-6.30L42.34-6.30L42.34-0.13Q42.34-0.08 42.30-0.04Q42.26 0 42.21 0L42.21 0L40.92 0Q40.87 0 40.83-0.04Q40.79-0.08 40.79-0.13L40.79-0.13L40.79-6.30Q40.79-6.36 40.73-6.36L40.73-6.36L38.82-6.36Q38.76-6.36 38.73-6.40Q38.69-6.43 38.69-6.49L38.69-6.49L38.69-7.57Q38.69-7.62 38.73-7.66Q38.76-7.70 38.82-7.70L38.82-7.70L44.36-7.70ZM46.96 0.09Q46.04 0.09 45.38-0.40Q44.72-0.88 44.47-1.72L44.47-1.72Q44.32-2.23 44.32-2.84L44.32-2.84Q44.32-3.49 44.47-4.00L44.47-4.00Q44.73-4.82 45.39-5.28Q46.05-5.74 46.97-5.74L46.97-5.74Q47.87-5.74 48.51-5.29Q49.15-4.83 49.41-4.01L49.41-4.01Q49.59-3.46 49.59-2.86L49.59-2.86Q49.59-2.27 49.43-1.75L49.43-1.75Q49.19-0.89 48.54-0.40Q47.88 0.09 46.96 0.09L46.96 0.09ZM46.96-1.24Q47.32-1.24 47.58-1.46Q47.83-1.68 47.94-2.07L47.94-2.07Q48.03-2.42 48.03-2.84L48.03-2.84Q48.03-3.30 47.94-3.62L47.94-3.62Q47.82-3.99 47.56-4.20Q47.31-4.41 46.95-4.41L46.95-4.41Q46.57-4.41 46.33-4.20Q46.08-3.99 45.97-3.62L45.97-3.62Q45.88-3.35 45.88-2.84L45.88-2.84Q45.88-2.34 45.96-2.07L45.96-2.07Q46.07-1.68 46.33-1.46Q46.59-1.24 46.96-1.24L46.96-1.24ZM53.02 0Q52.97 0 52.93-0.04Q52.89-0.08 52.89-0.13L52.89-0.13L52.89-7.57Q52.89-7.62 52.93-7.66Q52.97-7.70 53.02-7.70L53.02-7.70L55.77-7.70Q56.60-7.70 57.22-7.41Q57.84-7.12 58.18-6.59Q58.52-6.06 58.52-5.37L58.52-5.37L58.52-2.33Q58.52-1.64 58.18-1.11Q57.84-0.58 57.22-0.29Q56.60 0 55.77 0L55.77 0L53.02 0ZM54.44-1.39Q54.44-1.33 54.49-1.33L54.49-1.33L55.83-1.33Q56.33-1.33 56.64-1.67Q56.96-2.01 56.97-2.58L56.97-2.58L56.97-5.11Q56.97-5.69 56.66-6.03Q56.34-6.37 55.81-6.37L55.81-6.37L54.49-6.37Q54.44-6.37 54.44-6.31L54.44-6.31L54.44-1.39ZM62.08 0.09Q61.16 0.09 60.50-0.40Q59.84-0.88 59.60-1.72L59.60-1.72Q59.44-2.23 59.44-2.84L59.44-2.84Q59.44-3.49 59.60-4.00L59.60-4.00Q59.85-4.82 60.51-5.28Q61.17-5.74 62.10-5.74L62.10-5.74Q63.00-5.74 63.64-5.29Q64.27-4.83 64.54-4.01L64.54-4.01Q64.71-3.46 64.71-2.86L64.71-2.86Q64.71-2.27 64.56-1.75L64.56-1.75Q64.32-0.89 63.66-0.40Q63.01 0.09 62.08 0.09L62.08 0.09ZM62.08-1.24Q62.45-1.24 62.70-1.46Q62.95-1.68 63.06-2.07L63.06-2.07Q63.15-2.42 63.15-2.84L63.15-2.84Q63.15-3.30 63.06-3.62L63.06-3.62Q62.94-3.99 62.69-4.20Q62.44-4.41 62.07-4.41L62.07-4.41Q61.70-4.41 61.45-4.20Q61.20-3.99 61.09-3.62L61.09-3.62Q61.01-3.35 61.01-2.84L61.01-2.84Q61.01-2.34 61.08-2.07L61.08-2.07Q61.19-1.68 61.45-1.46Q61.71-1.24 62.08-1.24L62.08-1.24Z"/><path fill="#242530" transform="translate(23.27, 75.4)" d="M5.47-6.12Q5.47-6.07 5.44-6.04Q5.40-6 5.35-6L5.35-6L1.94-6Q1.89-6 1.89-5.95L1.89-5.95L1.89-4.08Q1.89-4.03 1.94-4.03L1.94-4.03L4.23-4.03Q4.28-4.03 4.32-4.00Q4.35-3.96 4.35-3.91L4.35-3.91L4.35-3.15Q4.35-3.10 4.32-3.06Q4.28-3.03 4.23-3.03L4.23-3.03L1.94-3.03Q1.89-3.03 1.89-2.98L1.89-2.98L1.89-1.05Q1.89-1 1.94-1L1.94-1L5.35-1Q5.40-1 5.44-0.96Q5.47-0.93 5.47-0.88L5.47-0.88L5.47-0.12Q5.47-0.07 5.44-0.04Q5.40 0 5.35 0L5.35 0L0.85 0Q0.80 0 0.77-0.04Q0.73-0.07 0.73-0.12L0.73-0.12L0.73-6.88Q0.73-6.93 0.77-6.96Q0.80-7 0.85-7L0.85-7L5.35-7Q5.40-7 5.44-6.96Q5.47-6.93 5.47-6.88L5.47-6.88L5.47-6.12ZM8.99-5.19Q9.80-5.19 10.29-4.71Q10.77-4.23 10.77-3.40L10.77-3.40L10.77-0.12Q10.77-0.07 10.73-0.04Q10.70 0 10.65 0L10.65 0L9.73 0Q9.68 0 9.64-0.04Q9.61-0.07 9.61-0.12L9.61-0.12L9.61-3.16Q9.61-3.62 9.35-3.91Q9.09-4.19 8.66-4.19L8.66-4.19Q8.23-4.19 7.96-3.91Q7.70-3.63 7.70-3.17L7.70-3.17L7.70-0.12Q7.70-0.07 7.67-0.04Q7.63 0 7.58 0L7.58 0L6.66 0Q6.61 0 6.58-0.04Q6.54-0.07 6.54-0.12L6.54-0.12L6.54-4.99Q6.54-5.04 6.58-5.08Q6.61-5.11 6.66-5.11L6.66-5.11L7.58-5.11Q7.63-5.11 7.67-5.08Q7.70-5.04 7.70-4.99L7.70-4.99L7.70-4.67Q7.70-4.64 7.72-4.63Q7.74-4.62 7.75-4.65L7.75-4.65Q8.16-5.19 8.99-5.19L8.99-5.19ZM14.69-4.29Q14.69-4.24 14.65-4.21Q14.62-4.17 14.57-4.17L14.57-4.17L13.55-4.17Q13.50-4.17 13.50-4.12L13.50-4.12L13.50-1.71Q13.50-1.33 13.66-1.16Q13.83-0.99 14.19-0.99L14.19-0.99L14.49-0.99Q14.54-0.99 14.57-0.96Q14.61-0.92 14.61-0.87L14.61-0.87L14.61-0.12Q14.61-0.01 14.49 0.01L14.49 0.01L13.97 0.02Q13.18 0.02 12.79-0.25Q12.40-0.52 12.39-1.27L12.39-1.27L12.39-4.12Q12.39-4.17 12.34-4.17L12.34-4.17L11.77-4.17Q11.72-4.17 11.68-4.21Q11.65-4.24 11.65-4.29L11.65-4.29L11.65-4.99Q11.65-5.04 11.68-5.08Q11.72-5.11 11.77-5.11L11.77-5.11L12.34-5.11Q12.39-5.11 12.39-5.16L12.39-5.16L12.39-6.33Q12.39-6.38 12.42-6.42Q12.46-6.45 12.51-6.45L12.51-6.45L13.38-6.45Q13.43-6.45 13.46-6.42Q13.50-6.38 13.50-6.33L13.50-6.33L13.50-5.16Q13.50-5.11 13.55-5.11L13.55-5.11L14.57-5.11Q14.62-5.11 14.65-5.08Q14.69-5.04 14.69-4.99L14.69-4.99L14.69-4.29ZM19.93-3.13Q19.97-2.88 19.97-2.57L19.97-2.57L19.96-2.26Q19.96-2.14 19.84-2.14L19.84-2.14L16.71-2.14Q16.66-2.14 16.66-2.09L16.66-2.09Q16.69-1.76 16.75-1.64L16.75-1.64Q16.99-0.92 17.92-0.91L17.92-0.91Q18.60-0.91 19-1.47L19-1.47Q19.04-1.53 19.10-1.53L19.10-1.53Q19.14-1.53 19.17-1.50L19.17-1.50L19.79-0.99Q19.88-0.92 19.82-0.83L19.82-0.83Q19.51-0.39 19.00-0.15Q18.48 0.09 17.85 0.09L17.85 0.09Q17.07 0.09 16.52-0.26Q15.98-0.61 15.73-1.24L15.73-1.24Q15.50-1.78 15.50-2.74L15.50-2.74Q15.50-3.32 15.62-3.68L15.62-3.68Q15.82-4.38 16.38-4.79Q16.93-5.19 17.71-5.19L17.71-5.19Q19.68-5.19 19.93-3.13L19.93-3.13ZM17.71-4.19Q17.34-4.19 17.09-4.00Q16.85-3.82 16.75-3.49L16.75-3.49Q16.69-3.32 16.67-3.05L16.67-3.05Q16.65-3 16.71-3L16.71-3L18.74-3Q18.79-3 18.79-3.05L18.79-3.05Q18.77-3.30 18.73-3.43L18.73-3.43Q18.64-3.79 18.38-3.99Q18.11-4.19 17.71-4.19L17.71-4.19ZM23.41-5.17Q23.73-5.17 23.97-5.04L23.97-5.04Q24.05-5 24.03-4.89L24.03-4.89L23.86-3.99Q23.85-3.87 23.72-3.92L23.72-3.92Q23.57-3.97 23.37-3.97L23.37-3.97Q23.24-3.97 23.17-3.96L23.17-3.96Q22.75-3.94 22.47-3.67Q22.19-3.39 22.19-2.95L22.19-2.95L22.19-0.12Q22.19-0.07 22.16-0.04Q22.12 0 22.07 0L22.07 0L21.15 0Q21.10 0 21.07-0.04Q21.03-0.07 21.03-0.12L21.03-0.12L21.03-4.99Q21.03-5.04 21.07-5.08Q21.10-5.11 21.15-5.11L21.15-5.11L22.07-5.11Q22.12-5.11 22.16-5.08Q22.19-5.04 22.19-4.99L22.19-4.99L22.19-4.54Q22.19-4.50 22.20-4.50Q22.22-4.49 22.24-4.52L22.24-4.52Q22.66-5.17 23.41-5.17L23.41-5.17ZM29.12-3.79Q29.30-3.28 29.30-2.54L29.30-2.54Q29.30-1.83 29.13-1.32L29.13-1.32Q28.91-0.66 28.43-0.29Q27.94 0.08 27.20 0.08L27.20 0.08Q26.49 0.08 26.06-0.43L26.06-0.43Q26.04-0.45 26.02-0.44Q26-0.43 26-0.40L26-0.40L26 1.77Q26 1.82 25.97 1.85Q25.93 1.89 25.88 1.89L25.88 1.89L24.96 1.89Q24.91 1.89 24.88 1.85Q24.84 1.82 24.84 1.77L24.84 1.77L24.84-4.99Q24.84-5.04 24.88-5.08Q24.91-5.11 24.96-5.11L24.96-5.11L25.88-5.11Q25.93-5.11 25.97-5.08Q26-5.04 26-4.99L26-4.99L26-4.69Q26-4.66 26.02-4.65Q26.04-4.64 26.06-4.67L26.06-4.67Q26.50-5.19 27.21-5.19L27.21-5.19Q27.92-5.19 28.41-4.82Q28.90-4.45 29.12-3.79L29.12-3.79ZM27.82-1.34Q28.12-1.80 28.12-2.56L28.12-2.56Q28.12-3.29 27.88-3.71L27.88-3.71Q27.60-4.20 27.03-4.20L27.03-4.20Q26.51-4.20 26.25-3.72L26.25-3.72Q26.02-3.33 26.02-2.56L26.02-2.56Q26.02-1.77 26.27-1.36L26.27-1.36Q26.53-0.92 27.02-0.92L27.02-0.92Q27.55-0.92 27.82-1.34L27.82-1.34ZM32.80-5.17Q33.12-5.17 33.36-5.04L33.36-5.04Q33.44-5 33.42-4.89L33.42-4.89L33.25-3.99Q33.24-3.87 33.11-3.92L33.11-3.92Q32.96-3.97 32.76-3.97L32.76-3.97Q32.63-3.97 32.56-3.96L32.56-3.96Q32.14-3.94 31.86-3.67Q31.58-3.39 31.58-2.95L31.58-2.95L31.58-0.12Q31.58-0.07 31.55-0.04Q31.51 0 31.46 0L31.46 0L30.54 0Q30.49 0 30.46-0.04Q30.42-0.07 30.42-0.12L30.42-0.12L30.42-4.99Q30.42-5.04 30.46-5.08Q30.49-5.11 30.54-5.11L30.54-5.11L31.46-5.11Q31.51-5.11 31.55-5.08Q31.58-5.04 31.58-4.99L31.58-4.99L31.58-4.54Q31.58-4.50 31.59-4.50Q31.61-4.49 31.63-4.52L31.63-4.52Q32.05-5.17 32.80-5.17L32.80-5.17ZM34.84-5.81Q34.53-5.81 34.33-6.01Q34.13-6.21 34.13-6.52L34.13-6.52Q34.13-6.83 34.33-7.03Q34.53-7.23 34.84-7.23L34.84-7.23Q35.15-7.23 35.35-7.03Q35.55-6.83 35.55-6.52L35.55-6.52Q35.55-6.21 35.35-6.01Q35.15-5.81 34.84-5.81L34.84-5.81ZM34.36 0Q34.31 0 34.28-0.04Q34.24-0.07 34.24-0.12L34.24-0.12L34.24-5Q34.24-5.05 34.28-5.08Q34.31-5.12 34.36-5.12L34.36-5.12L35.28-5.12Q35.33-5.12 35.37-5.08Q35.40-5.05 35.40-5L35.40-5L35.40-0.12Q35.40-0.07 35.37-0.04Q35.33 0 35.28 0L35.28 0L34.36 0ZM38.63 0.06Q38 0.06 37.52-0.13Q37.05-0.31 36.79-0.64Q36.53-0.96 36.53-1.36L36.53-1.36L36.53-1.45Q36.53-1.50 36.56-1.54Q36.60-1.57 36.65-1.57L36.65-1.57L37.53-1.57Q37.58-1.57 37.62-1.54Q37.65-1.50 37.65-1.45L37.65-1.45L37.65-1.43Q37.65-1.18 37.92-0.99Q38.20-0.81 38.62-0.81L38.62-0.81Q39.02-0.81 39.27-0.97Q39.52-1.14 39.52-1.39L39.52-1.39Q39.52-1.62 39.31-1.74Q39.11-1.85 38.65-1.98L38.65-1.98L38.27-2.10Q37.76-2.25 37.41-2.42Q37.06-2.59 36.82-2.89Q36.58-3.18 36.58-3.64L36.58-3.64Q36.58-4.34 37.13-4.75Q37.68-5.17 38.58-5.17L38.58-5.17Q39.19-5.17 39.65-4.98Q40.11-4.78 40.36-4.44Q40.61-4.09 40.61-3.65L40.61-3.65Q40.61-3.60 40.58-3.56Q40.54-3.53 40.49-3.53L40.49-3.53L39.64-3.53Q39.59-3.53 39.55-3.56Q39.52-3.60 39.52-3.65L39.52-3.65Q39.52-3.91 39.27-4.08Q39.01-4.26 38.57-4.26L38.57-4.26Q38.18-4.26 37.94-4.12Q37.69-3.97 37.69-3.71L37.69-3.71Q37.69-3.47 37.92-3.35Q38.16-3.22 38.71-3.07L38.71-3.07L38.93-3.01Q39.46-2.85 39.82-2.69Q40.18-2.52 40.43-2.23Q40.68-1.93 40.68-1.46L40.68-1.46Q40.68-0.75 40.12-0.35Q39.56 0.06 38.63 0.06L38.63 0.06ZM45.97-3.13Q46.01-2.88 46.01-2.57L46.01-2.57L46-2.26Q46-2.14 45.88-2.14L45.88-2.14L42.75-2.14Q42.70-2.14 42.70-2.09L42.70-2.09Q42.73-1.76 42.79-1.64L42.79-1.64Q43.03-0.92 43.96-0.91L43.96-0.91Q44.64-0.91 45.04-1.47L45.04-1.47Q45.08-1.53 45.14-1.53L45.14-1.53Q45.18-1.53 45.21-1.50L45.21-1.50L45.83-0.99Q45.92-0.92 45.86-0.83L45.86-0.83Q45.55-0.39 45.03-0.15Q44.52 0.09 43.89 0.09L43.89 0.09Q43.11 0.09 42.56-0.26Q42.02-0.61 41.77-1.24L41.77-1.24Q41.54-1.78 41.54-2.74L41.54-2.74Q41.54-3.32 41.66-3.68L41.66-3.68Q41.86-4.38 42.41-4.79Q42.97-5.19 43.75-5.19L43.75-5.19Q45.72-5.19 45.97-3.13L45.97-3.13ZM43.75-4.19Q43.38-4.19 43.13-4.00Q42.89-3.82 42.79-3.49L42.79-3.49Q42.73-3.32 42.71-3.05L42.71-3.05Q42.69-3 42.75-3L42.75-3L44.78-3Q44.83-3 44.83-3.05L44.83-3.05Q44.81-3.30 44.77-3.43L44.77-3.43Q44.68-3.79 44.41-3.99Q44.15-4.19 43.75-4.19L43.75-4.19Z"/><path fill="#252530" transform="translate(35.03, 89.5)" d="M5.46-5.91Q5.46-5.86 5.42-5.83Q5.39-5.79 5.34-5.79L5.34-5.79L2.07-5.79Q2.02-5.79 2.02-5.74L2.02-5.74L2.02-4.19Q2.02-4.14 2.07-4.14L2.07-4.14L4.22-4.14Q4.27-4.14 4.30-4.11Q4.34-4.07 4.34-4.02L4.34-4.02L4.34-3.05Q4.34-3 4.30-2.96Q4.27-2.93 4.22-2.93L4.22-2.93L2.07-2.93Q2.02-2.93 2.02-2.88L2.02-2.88L2.02-0.12Q2.02-0.07 1.99-0.04Q1.95 0 1.90 0L1.90 0L0.73 0Q0.68 0 0.65-0.04Q0.61-0.07 0.61-0.12L0.61-0.12L0.61-6.88Q0.61-6.93 0.65-6.96Q0.68-7 0.73-7L0.73-7L5.34-7Q5.39-7 5.42-6.96Q5.46-6.93 5.46-6.88L5.46-6.88L5.46-5.91ZM9.88 0Q9.78 0 9.75-0.10L9.75-0.10L9.45-1.08Q9.43-1.12 9.40-1.12L9.40-1.12L6.94-1.12Q6.91-1.12 6.89-1.08L6.89-1.08L6.60-0.10Q6.57 0 6.47 0L6.47 0L5.20 0Q5.14 0 5.11-0.04Q5.08-0.07 5.10-0.14L5.10-0.14L7.26-6.90Q7.29-7 7.39-7L7.39-7L8.96-7Q9.06-7 9.09-6.90L9.09-6.90L11.25-0.14Q11.26-0.12 11.26-0.09L11.26-0.09Q11.26 0 11.15 0L11.15 0L9.88 0ZM7.25-2.27Q7.24-2.21 7.29-2.21L7.29-2.21L9.05-2.21Q9.11-2.21 9.09-2.27L9.09-2.27L8.19-5.24Q8.18-5.28 8.16-5.28Q8.14-5.27 8.13-5.24L8.13-5.24L7.25-2.27ZM12.26 0Q12.21 0 12.18-0.04Q12.14-0.07 12.14-0.12L12.14-0.12L12.14-6.88Q12.14-6.93 12.18-6.96Q12.21-7 12.26-7L12.26-7L13.43-7Q13.48-7 13.52-6.96Q13.55-6.93 13.55-6.88L13.55-6.88L13.55-1.26Q13.55-1.21 13.60-1.21L13.60-1.21L16.87-1.21Q16.92-1.21 16.96-1.18Q16.99-1.14 16.99-1.09L16.99-1.09L16.99-0.12Q16.99-0.07 16.96-0.04Q16.92 0 16.87 0L16.87 0L12.26 0ZM17.98 0Q17.93 0 17.89-0.04Q17.86-0.07 17.86-0.12L17.86-0.12L17.86-6.88Q17.86-6.93 17.89-6.96Q17.93-7 17.98-7L17.98-7L19.15-7Q19.20-7 19.23-6.96Q19.27-6.93 19.27-6.88L19.27-6.88L19.27-1.26Q19.27-1.21 19.32-1.21L19.32-1.21L22.59-1.21Q22.64-1.21 22.68-1.18Q22.71-1.14 22.71-1.09L22.71-1.09L22.71-0.12Q22.71-0.07 22.68-0.04Q22.64 0 22.59 0L22.59 0L17.98 0Z"/><path fill="#252530" transform="translate(36.68, 98.9)" d="M2.33-1.27Q2.31-1.25 2.32-1.23Q2.33-1.21 2.36-1.21L2.36-1.21L5.07-1.21Q5.12-1.21 5.16-1.18Q5.19-1.14 5.19-1.09L5.19-1.09L5.19-0.12Q5.19-0.07 5.16-0.04Q5.12 0 5.07 0L5.07 0L0.57 0Q0.52 0 0.48-0.04Q0.45-0.07 0.45-0.12L0.45-0.12L0.45-1.04Q0.45-1.13 0.51-1.19L0.51-1.19Q1-1.67 1.51-2.23Q2.02-2.80 2.15-2.94L2.15-2.94Q2.43-3.27 2.72-3.57L2.72-3.57Q3.63-4.58 3.63-5.07L3.63-5.07Q3.63-5.42 3.38-5.65Q3.13-5.87 2.73-5.87L2.73-5.87Q2.33-5.87 2.08-5.65Q1.83-5.42 1.83-5.05L1.83-5.05L1.83-4.80Q1.83-4.75 1.79-4.71Q1.76-4.68 1.71-4.68L1.71-4.68L0.53-4.68Q0.48-4.68 0.45-4.71Q0.41-4.75 0.41-4.80L0.41-4.80L0.41-5.27Q0.44-5.81 0.75-6.23Q1.06-6.64 1.57-6.86Q2.09-7.08 2.73-7.08L2.73-7.08Q3.44-7.08 3.97-6.82Q4.49-6.55 4.78-6.10Q5.06-5.65 5.06-5.10L5.06-5.10Q5.06-4.68 4.85-4.24Q4.64-3.80 4.22-3.29L4.22-3.29Q3.91-2.90 3.55-2.52Q3.19-2.14 2.48-1.42L2.48-1.42L2.33-1.27ZM8.44 0.11Q7.34 0.11 6.70-0.51Q6.06-1.12 6.06-2.18L6.06-2.18L6.06-4.82Q6.06-5.86 6.70-6.47Q7.34-7.08 8.44-7.08L8.44-7.08Q9.54-7.08 10.19-6.47Q10.83-5.86 10.83-4.82L10.83-4.82L10.83-2.18Q10.83-1.12 10.19-0.51Q9.54 0.11 8.44 0.11L8.44 0.11ZM8.44-1.10Q8.89-1.10 9.16-1.38Q9.42-1.65 9.42-2.11L9.42-2.11L9.42-4.86Q9.42-5.32 9.16-5.59Q8.89-5.87 8.44-5.87L8.44-5.87Q8-5.87 7.74-5.59Q7.47-5.32 7.47-4.86L7.47-4.86L7.47-2.11Q7.47-1.65 7.74-1.38Q8-1.10 8.44-1.10L8.44-1.10ZM13.63-1.27Q13.61-1.25 13.62-1.23Q13.63-1.21 13.66-1.21L13.66-1.21L16.37-1.21Q16.42-1.21 16.46-1.18Q16.49-1.14 16.49-1.09L16.49-1.09L16.49-0.12Q16.49-0.07 16.46-0.04Q16.42 0 16.37 0L16.37 0L11.87 0Q11.82 0 11.79-0.04Q11.75-0.07 11.75-0.12L11.75-0.12L11.75-1.04Q11.75-1.13 11.81-1.19L11.81-1.19Q12.30-1.67 12.81-2.23Q13.32-2.80 13.45-2.94L13.45-2.94Q13.73-3.27 14.02-3.57L14.02-3.57Q14.93-4.58 14.93-5.07L14.93-5.07Q14.93-5.42 14.68-5.65Q14.43-5.87 14.03-5.87L14.03-5.87Q13.63-5.87 13.38-5.65Q13.13-5.42 13.13-5.05L13.13-5.05L13.13-4.80Q13.13-4.75 13.10-4.71Q13.06-4.68 13.01-4.68L13.01-4.68L11.83-4.68Q11.78-4.68 11.75-4.71Q11.71-4.75 11.71-4.80L11.71-4.80L11.71-5.27Q11.74-5.81 12.05-6.23Q12.36-6.64 12.88-6.86Q13.39-7.08 14.03-7.08L14.03-7.08Q14.74-7.08 15.27-6.82Q15.79-6.55 16.08-6.10Q16.36-5.65 16.36-5.10L16.36-5.10Q16.36-4.68 16.15-4.24Q15.94-3.80 15.52-3.29L15.52-3.29Q15.21-2.90 14.85-2.52Q14.49-2.14 13.78-1.42L13.78-1.42L13.63-1.27ZM18.34-6.97Q18.39-7 18.49-7L18.49-7L19.70-7Q19.75-7 19.79-6.96Q19.82-6.93 19.82-6.88L19.82-6.88L19.82-0.12Q19.82-0.07 19.79-0.04Q19.75 0 19.70 0L19.70 0L18.53 0Q18.48 0 18.45-0.04Q18.41-0.07 18.41-0.12L18.41-0.12L18.41-5.60Q18.41-5.62 18.39-5.64Q18.37-5.66 18.35-5.65L18.35-5.65L17.36-5.38L17.32-5.37Q17.23-5.37 17.23-5.48L17.23-5.48L17.20-6.34Q17.20-6.44 17.29-6.48L17.29-6.48L18.34-6.97Z"/></g>
</svg>